<?xml version="1.0" encoding="UTF-8" standalone="no"?>
<svg
   xmlns:dc="http://purl.org/dc/elements/1.1/"
   xmlns:cc="http://creativecommons.org/ns#"
   xmlns:rdf="http://www.w3.org/1999/02/22-rdf-syntax-ns#"
   xmlns:svg="http://www.w3.org/2000/svg"
   xmlns="http://www.w3.org/2000/svg"
   viewBox="0 0 1440 1440"
   height="1440"
   width="1440"
   xml:space="preserve"
   id="svg2"
   version="1.1"><metadata
     id="metadata8"><rdf:RDF><cc:Work
         rdf:about=""><dc:format>image/svg+xml</dc:format><dc:type
           rdf:resource="http://purl.org/dc/dcmitype/StillImage" /></cc:Work></rdf:RDF></metadata><defs
     id="defs6"><clipPath
       id="clipPath22"
       clipPathUnits="userSpaceOnUse"><path
         id="path20"
         d="M 0,1080 H 1080 V 0 H 0 Z" /></clipPath></defs><g
     transform="matrix(1.3333333,0,0,-1.3333333,0,1440)"
     id="g10"><g
       transform="translate(514.5649,849.7188)"
       id="g12"><path
         id="path14"
         style="fill:#ffffff;fill-opacity:1;fill-rule:nonzero;stroke:none"
         d="m 0,0 -27.075,-98.355 -162.074,-47.742 V -333.39 l -92.223,-55.165 v 215.295 l -179.693,-52.933 26.009,97.728 z" /></g><g
       id="g16"><g
         clip-path="url(#clipPath22)"
         id="g18"><g
           transform="translate(427.6686,348.1154)"
           id="g24"><path
             id="path26"
             style="fill:#ffffff;fill-opacity:1;fill-rule:nonzero;stroke:none"
             d="m 0,0 -97.528,-60.516 v 189.851 l -92.214,-55.171 c 0,0 -0.788,-149.486 -12.611,-313.028 0.246,-0.147 0.87,0.262 1.823,1.158 15.243,9.672 123.669,78.358 194.982,120.415 z" /></g><g
           transform="translate(473.5839,562.045)"
           id="g28"><path
             id="path30"
             style="fill:#ffffff;fill-opacity:1;fill-rule:nonzero;stroke:none"
             d="M 0,0 -32.712,-19.306 -31.074,69.091 0,81.184 Z M -106.01,116.65 V -151.325 L 62.658,-48.182 v 211.6 z" /></g><g
           transform="translate(557.7415,347.1902)"
           id="g32"><path
             id="path34"
             style="fill:#ffffff;fill-opacity:1;fill-rule:nonzero;stroke:none"
             d="M 0,0 -24.165,-12.082 V 54.122 L 0,68.829 Z m -104.907,72.48 -8.714,-250.347 91.291,55.822 v 34.559 l 26.269,11.03 v -47.719 l 76.94,47.05 V 188.28 Z" /></g><g
           transform="translate(696.627,730.1393)"
           id="g36"><path
             id="path38"
             style="fill:#ffffff;fill-opacity:1;fill-rule:nonzero;stroke:none"
             d="M 0,0 -39.415,-14.187 V 50.444 L 2.364,48.86 Z m 90.5,-47.42 9.457,152.117 -222.909,14.884 v -312.967 l 88.537,54.142 v 21.28 l 53.591,-63.84 77.215,47.225 -51.596,57.993 z" /></g><g
           transform="translate(752.3276,354.8622)"
           id="g40"><path
             id="path42"
             style="fill:#ffffff;fill-opacity:1;fill-rule:nonzero;stroke:none"
             d="M 0,0 -33.238,-19.754 V 31.081 L -13.531,36.555 8.932,19.391 Z M -33.238,108.672 -6.306,106.299 -8.145,84.05 -33.238,67.236 Z m 77.116,-52.81 20.668,58.332 -24.356,28.36 -125.044,12.615 v -279.207 l 149.809,91.487 19.142,54.553 z" /></g><g
           transform="translate(820.1584,527.4689)"
           id="g44"><path
             id="path46"
             style="fill:#ffffff;fill-opacity:1;fill-rule:nonzero;stroke:none"
             d="M 0,0 3.759,186.693 102.278,211.52 60.222,36.827 Z" /></g><g
           transform="translate(859.2368,513.5284)"
           id="g48"><path
             id="path50"
             style="fill:#ffffff;fill-opacity:1;fill-rule:nonzero;stroke:none"
             d="m 0,0 122.785,77.139 1.366,-74.631 -63.84,-34.81 -0.502,-21.613 74.024,39.303 33.43,-101.39 -183.614,-112.283 26.85,90.464 55.585,29.42 0.926,18.411 -58.324,-28.056 -38.527,34.312 z" /></g><g
           transform="translate(918.0848,970.7777)"
           id="g52"><path
             id="path54"
             style="fill:#ffffff;fill-opacity:1;fill-rule:nonzero;stroke:none"
             d="m 0,0 0.013,-9.179 c 0.071,-50.18 27.984,-96.176 72.464,-119.406 l 8.38,-4.377 -10.454,-0.11 c -49.738,-0.523 -95.154,-28.369 -118.18,-72.459 l -4.328,-8.288 -0.721,15.382 c -2.205,47.026 -28.761,89.503 -70.072,112.08 l -10.064,5.5 10.434,0.152 c 47.538,0.691 91.203,26.349 114.942,67.541 z" /></g></g></g></g></svg>